<?xml version="1.0" encoding="UTF-8" standalone="no"?>
<!-- Created with Inkscape (http://www.inkscape.org/) -->

<svg
   width="110"
   height="110"
   viewBox="0 0 29.000003 29.000003"
   version="1.1"
   id="svg1"
   inkscape:version="1.4.2 (ebf0e940, 2025-05-08)"
   sodipodi:docname="logo-dark.svg"
   xmlns:inkscape="http://www.inkscape.org/namespaces/inkscape"
   xmlns:sodipodi="http://sodipodi.sourceforge.net/DTD/sodipodi-0.dtd"
   xmlns="http://www.w3.org/2000/svg"
   xmlns:svg="http://www.w3.org/2000/svg">
  <sodipodi:namedview
     id="namedview1"
     pagecolor="#ffffff"
     bordercolor="#000000"
     borderopacity="0.25"
     inkscape:showpageshadow="2"
     inkscape:pageopacity="0.0"
     inkscape:pagecheckerboard="0"
     inkscape:deskcolor="#d1d1d1"
     inkscape:document-units="mm"
     inkscape:zoom="2.5937761"
     inkscape:cx="94.842419"
     inkscape:cy="53.011515"
     inkscape:window-width="1360"
     inkscape:window-height="980"
     inkscape:window-x="3666"
     inkscape:window-y="107"
     inkscape:window-maximized="0"
     inkscape:current-layer="layer1" />
  <defs
     id="defs1" />
  <g
     inkscape:label="Layer 1"
     inkscape:groupmode="layer"
     id="layer1">
    <rect
       style="opacity:1;fill:#ff2056;stroke:#5999d8;stroke-width:0;fill-opacity:1"
       id="rect1"
       width="29.049849"
       height="28.932131"
       x="7.7515336e-09"
       y="-29.012178"
       transform="scale(1,-1)"
       rx="1.992842" />
    <path
       fill="#000000"
       opacity="1"
       stroke="none"
       d="m 21.041724,5.6545319 c 0.558699,0.562073 1.10127,1.1203393 1.659861,1.6620871 0.182896,0.1773785 0.259766,0.3589828 0.258142,0.6165484 -0.01105,1.7577902 -0.0083,3.5156846 -0.0043,5.2735306 3.39e-4,0.160349 -0.04771,0.27718 -0.16057,0.39043 -1.003893,1.00728 -2.003991,2.018357 -3.002345,3.031135 -0.09205,0.09338 -0.189026,0.131057 -0.319854,0.130862 -1.965857,-0.0029 -3.931726,-0.0031 -5.897581,0.0013 -0.156203,3.39e-4 -0.223184,-0.02766 -0.221992,-0.207802 0.0082,-1.241184 0.0088,-2.482485 -5.08e-4,-3.723656 -0.0015,-0.199504 0.05992,-0.244881 0.249859,-0.243754 1.227778,0.0072 2.45563,7.02e-4 3.683442,0.0043 0.144771,4.23e-4 0.251403,-0.03795 0.353617,-0.144967 0.291756,-0.305469 0.592454,-0.602596 0.895338,-0.897138 0.108503,-0.10552 0.160249,-0.219518 0.157607,-0.373096 -0.0074,-0.429275 -0.0068,-0.858786 -0.0018,-1.2881179 0.0015,-0.1374526 -0.0404,-0.2407558 -0.140405,-0.3372782 -0.318576,-0.3074622 -0.631262,-0.6211203 -0.941962,-0.9365815 -0.08095,-0.0822 -0.167015,-0.1220086 -0.283488,-0.1217495 -1.650511,0.00368 -3.301045,0.00796 -4.951537,0.00214 -0.229418,-8.32e-4 -0.239089,0.1148143 -0.238946,0.2897801 0.0034,4.173265 0.0021,8.346535 0.0082,12.519792 3.38e-4,0.195596 -0.05713,0.316752 -0.215552,0.433713 -1.305683,0.964016 -2.6043355,1.937546 -3.9060861,2.906895 -0.057342,0.04269 -0.1046427,0.10716 -0.1904586,0.108349 -0.085219,-0.05513 -0.053147,-0.143453 -0.053172,-0.218039 -0.00198,-6.078737 -0.00441,-12.157481 0.00339,-18.2362095 C 7.7810606,6.0090077 7.7043523,5.8127652 7.4816045,5.6276252 7.0279765,5.2505866 6.5989207,4.843942 6.1611173,4.4479696 6.1134887,4.4048942 6.0485783,4.3721451 6.040251,4.2930931 c 0.050026,-0.067049 0.1227579,-0.038145 0.1843674,-0.038164 4.4013856,-0.00166 8.8027686,-0.00109 13.2041506,-0.0046 0.160076,-1.285e-4 0.272069,0.04688 0.384756,0.1646861 0.398721,0.4168463 0.811158,0.8205748 1.228297,1.2395109 z"
       id="path1"
       style="fill:#0f1419;fill-opacity:1;stroke-width:0.0402627" />
  </g>
</svg>
